<svg version="1.1" viewBox="0.0 0.0 1024.0 768.0" fill="none" stroke="none" stroke-linecap="square" stroke-miterlimit="10" xmlns:xlink="http://www.w3.org/1999/xlink" xmlns="http://www.w3.org/2000/svg"><clipPath id="p.0"><path d="m0 0l1024.0 0l0 768.0l-1024.0 0l0 -768.0z" clip-rule="nonzero"/></clipPath><g clip-path="url(#p.0)"><path fill="#000000" fill-opacity="0.0" d="m0 0l1024.0 0l0 768.0l-1024.0 0z" fill-rule="evenodd"/><path fill="#cfe2f3" d="m372.24146 374.29462l0 0c0 -22.030518 17.859283 -39.88977 39.88977 -39.88977l0 0c10.579437 0 20.725555 4.202667 28.20633 11.683441c7.480774 7.480774 11.683441 17.626892 11.683441 28.20633l0 0c0 22.030518 -17.859253 39.88977 -39.88977 39.88977l0 0c-22.030487 0 -39.88977 -17.859253 -39.88977 -39.88977z" fill-rule="evenodd"/><path stroke="#000000" stroke-width="4.0" stroke-linejoin="round" stroke-linecap="butt" d="m372.24146 374.29462l0 0c0 -22.030518 17.859283 -39.88977 39.88977 -39.88977l0 0c10.579437 0 20.725555 4.202667 28.20633 11.683441c7.480774 7.480774 11.683441 17.626892 11.683441 28.20633l0 0c0 22.030518 -17.859253 39.88977 -39.88977 39.88977l0 0c-22.030487 0 -39.88977 -17.859253 -39.88977 -39.88977z" fill-rule="evenodd"/><path fill="#cfe2f3" d="m372.24146 197.35957l0 0c0 -22.030502 17.859283 -39.889755 39.88977 -39.889755l0 0c10.579437 0 20.725555 4.202652 28.20633 11.683441c7.480774 7.480774 11.683441 17.626892 11.683441 28.206314l0 0c0 22.030518 -17.859253 39.88977 -39.88977 39.88977l0 0c-22.030487 0 -39.88977 -17.859253 -39.88977 -39.88977z" fill-rule="evenodd"/><path stroke="#000000" stroke-width="4.0" stroke-linejoin="round" stroke-linecap="butt" d="m372.24146 197.35957l0 0c0 -22.030502 17.859283 -39.889755 39.88977 -39.889755l0 0c10.579437 0 20.725555 4.202652 28.20633 11.683441c7.480774 7.480774 11.683441 17.626892 11.683441 28.206314l0 0c0 22.030518 -17.859253 39.88977 -39.88977 39.88977l0 0c-22.030487 0 -39.88977 -17.859253 -39.88977 -39.88977z" fill-rule="evenodd"/><path fill="#cfe2f3" d="m466.46194 247.47769l0 0c0 -22.030502 17.859253 -39.88977 39.88977 -39.88977l0 0c10.579437 0 20.725555 4.202667 28.20633 11.683441c7.480774 7.480789 11.683411 17.626907 11.683411 28.20633l0 0c0 22.030518 -17.859253 39.88977 -39.88974 39.88977l0 0c-22.030518 0 -39.88977 -17.859253 -39.88977 -39.88977z" fill-rule="evenodd"/><path stroke="#000000" stroke-width="4.0" stroke-linejoin="round" stroke-linecap="butt" d="m466.46194 247.47769l0 0c0 -22.030502 17.859253 -39.88977 39.88977 -39.88977l0 0c10.579437 0 20.725555 4.202667 28.20633 11.683441c7.480774 7.480789 11.683411 17.626907 11.683411 28.20633l0 0c0 22.030518 -17.859253 39.88977 -39.88974 39.88977l0 0c-22.030518 0 -39.88977 -17.859253 -39.88977 -39.88977z" fill-rule="evenodd"/><path fill="#000000" fill-opacity="0.0" d="m412.13123 237.24934l0 97.16536" fill-rule="evenodd"/><path stroke="#000000" stroke-width="8.0" stroke-linejoin="round" stroke-linecap="butt" d="m412.13123 237.24934l0 97.16536" fill-rule="evenodd"/><path fill="#000000" fill-opacity="0.0" d="m448.937 211.68504l24.566925 13.291336" fill-rule="evenodd"/><path stroke="#000000" stroke-width="8.0" stroke-linejoin="round" stroke-linecap="butt" d="m448.937 211.68504l24.566925 13.291336" fill-rule="evenodd"/><path fill="#000000" fill-opacity="0.0" d="m435.91077 341.98163l49.88977 -60.724396" fill-rule="evenodd"/><path stroke="#000000" stroke-width="8.0" stroke-linejoin="round" stroke-linecap="butt" d="m435.91077 341.98163l49.88977 -60.724396" fill-rule="evenodd"/></g></svg>